<svg width="39" height="39" viewBox="0 0 39 39" fill="none" xmlns="http://www.w3.org/2000/svg">
<g clip-path="url(#clip0_112_2535)">
<path d="M19.8414 39C19.6004 39 19.3996 39 19.1586 39C19.0381 38.9197 18.8774 38.9598 18.757 38.9598C18.6365 38.9598 18.516 38.9598 18.4356 38.9598C18.3553 38.9598 18.2348 38.9197 18.1545 38.9197C17.6323 38.8795 17.1504 38.8393 16.6282 38.759C15.2626 38.5582 13.9372 38.1967 12.6117 37.6746C7.63131 35.7467 3.57467 31.7703 1.52626 26.8702C0.963955 25.5046 0.522142 24.0587 0.281153 22.5726C0.160659 21.93 0.120494 21.2873 0.0803296 20.6849C0.0803296 20.6447 0.0803296 20.6045 0.0803296 20.5644C0.0803296 20.5242 0.0401648 20.5644 0 20.5644C0 20.5242 0 20.484 0 20.4439C0.0401648 20.484 0.0401648 20.484 0.0803296 20.4439C0.0803296 20.3635 0.0803296 20.2832 0.0803296 20.243C0.120494 20.1627 0.0803296 20.1226 0.0803296 20.0422C0.0803296 19.6807 0.0803296 19.3193 0.0803296 18.9578C0.0803296 18.8774 0.0803296 18.8373 0.0803296 18.7569C0.0803296 18.6766 0.0803296 18.5963 0.0803296 18.516C0.0803296 18.4356 0.0401648 18.4758 0 18.516C0 18.4758 0 18.4758 0 18.4356C0 18.4758 0.0401648 18.4758 0.0803296 18.4356C0.0803296 18.3955 0.0803296 18.3553 0.0803296 18.3553C0.120494 18.0741 0.120494 17.8332 0.160659 17.552C0.240989 16.5881 0.441813 15.6241 0.682801 14.6601C1.56643 11.3666 3.17302 8.51493 5.54274 6.06488C9.15757 2.32955 13.5757 0.28115 18.7971 0.0401611C19.2791 0.0401611 19.7611 0.0401611 20.243 0.0401611C20.966 0.0803259 21.7291 0.120491 22.4521 0.240985C23.6571 0.441809 24.8218 0.722962 25.9866 1.16478C31.1277 3.05252 34.9032 6.50669 37.2327 11.447C38.277 13.656 38.8795 15.9454 38.9598 18.3955C38.9598 18.516 38.9598 18.6365 38.9598 18.7569C38.9598 18.8774 38.9197 19.0381 39 19.1586C39 19.3996 39 19.6004 39 19.8414C38.9197 19.9619 38.9598 20.0824 38.9598 20.243C38.9598 20.3635 38.9598 20.484 38.9598 20.6045C38.9598 21.207 38.8795 21.7693 38.7992 22.3316C38.5582 23.9784 38.1164 25.5448 37.4336 27.0309C35.1442 32.2925 30.6859 36.3491 25.2235 38.0762C24.0587 38.4377 22.8939 38.7188 21.689 38.8393C21.3275 38.8795 20.966 38.9197 20.6045 38.9598C20.484 38.9598 20.3635 38.9598 20.2832 38.9598C20.1226 38.9598 20.0021 38.9197 19.8414 39ZM19.6004 35.586C20.4037 35.586 21.3275 35.5057 22.2111 35.345C24.1792 34.9835 26.0268 34.3007 27.7137 33.2564C32.7343 30.2441 35.345 25.0628 35.586 20.243C35.6663 18.7971 35.5458 17.3512 35.2245 15.9454C34.3007 12.0494 32.2122 8.87641 28.999 6.50669C26.4284 4.65911 23.5767 3.61483 20.4037 3.45417C18.9578 3.37384 17.552 3.45417 16.1462 3.77549C13.8167 4.29763 11.7281 5.22142 9.84037 6.66735C5.74356 9.76004 3.81565 14.2585 3.49434 18.034C3.37384 19.3996 3.41401 20.725 3.61483 22.0505C3.89598 23.6972 4.41813 25.3038 5.22142 26.7899C7.95263 32.172 13.4954 35.586 19.6004 35.586Z" fill="#BD1540"/>
<path d="M22.3315 11.2863C20.3233 13.3347 18.3552 15.3429 16.3871 17.3511C16.4675 17.3913 16.5478 17.3913 16.588 17.3913C18.6364 17.3913 20.6848 17.3913 22.693 17.3913C24.8217 17.3913 26.9505 17.3913 29.1194 17.3913C29.4005 17.3913 29.3603 17.3511 29.3603 17.6323C29.3603 18.9176 29.3603 20.1627 29.3603 21.4479C29.3603 21.4881 29.3603 21.5283 29.3603 21.5684C29.3603 21.6086 29.3202 21.6488 29.28 21.6488C29.2399 21.6488 29.1595 21.6488 29.1194 21.6488C24.9422 21.6488 20.7651 21.6488 16.6281 21.6488C16.5478 21.6488 16.5076 21.6488 16.3871 21.6488C18.3552 23.6972 20.3233 25.7054 22.2914 27.7137C22.2512 27.7538 22.211 27.7538 22.1709 27.7538C20.4036 27.7538 18.5962 27.7538 16.8289 27.7538C16.7084 27.7538 16.6281 27.7137 16.5478 27.6333C14.8609 25.8661 13.2141 24.139 11.5272 22.3717C10.6837 21.4881 9.8001 20.5643 8.95664 19.6807C8.91648 19.6405 8.91648 19.6405 8.87631 19.6004C8.83615 19.5602 8.83615 19.52 8.87631 19.4799C8.91648 19.4397 8.95664 19.3995 8.95664 19.3995C11.487 16.7487 14.0174 14.0978 16.5478 11.4469C16.6281 11.3666 16.7084 11.3264 16.7888 11.3264C18.5962 11.3264 20.3634 11.3264 22.1709 11.3264C22.211 11.2863 22.2512 11.2863 22.3315 11.2863Z" fill="#BD1540"/>
</g>
<defs>
<clipPath id="clip0_112_2535">
<rect width="39" height="39" fill="white"/>
</clipPath>
</defs>
</svg>
