<svg xmlns="http://www.w3.org/2000/svg" xmlns:xlink="http://www.w3.org/1999/xlink" viewBox="0 0 572 350" xmlns:v="https://vecta.io/nano"><defs><path id="A" d="M107.5 228.96h40.54c12.06 0 20.69 2.51 25.89 7.52s7.8 10.96 7.8 17.85c0 8.25-2.71 14.68-8.11 19.26-5.41 4.6-14.67 6.89-27.76 6.89H107.5v-51.52zm0-85.89h34.18c10.4 0 17.36.5 20.9 1.5s6.79 3.47 9.75 7.4c2.96 3.94 4.45 8.64 4.45 14.09 0 5.05-1.79 10.33-5.39 15.84-3.59 5.52-12.3 8.27-26.14 8.27H107.5v-47.1zm-50.04-38.79v216.67h99.74c27.29 0 46.99-5.87 59.12-17.62s18.2-25.68 18.2-41.8c0-11.8-3.74-22.71-11.2-32.72-7.48-10.01-18.68-16.69-33.61-20.07 25.85-8.08 38.77-24.18 38.77-48.32 0-11.9-2.93-22-8.78-30.3-5.85-8.29-13.27-14.67-22.25-19.13-8.99-4.47-22.42-6.7-40.29-6.7h-99.7zm397.3 216.66h50.04V104.28h-50.04v216.66zM321.01 101.22c-17.34 2.15-31.53 8.51-42.59 19.09-13.87 13.27-20.79 29.57-20.79 48.89 0 19.12 5.82 33.65 17.47 43.57 11.65 9.93 31.13 17.84 58.44 23.72 14.64 3.17 24.53 6.5 29.67 10.02 5.13 3.52 7.7 8.47 7.7 14.85 0 6.29-2.82 11.7-8.45 16.22-5.63 4.53-14.17 6.79-25.63 6.79-23.76 0-38.25-10.16-43.46-30.48l-46.74 10.66c4.91 19.93 15.09 34.96 30.54 45.08 15.44 10.13 34.15 15.19 56.14 15.19 29.31 0 51.43-7.14 66.34-21.43 14.92-14.29 22.38-31.21 22.38-50.79 0-12.49-3.49-23.78-10.46-33.88-6.98-10.1-15.56-17.43-25.73-21.98s-26.18-9.19-48-13.9c-13.06-2.81-21.45-6.02-25.16-9.64s-5.57-8.03-5.57-13.26c0-13.09 9.96-19.65 29.88-19.65 18.66 0 30.88 8.5 36.65 25.49l42.34-14.44c-10.51-29.65-32.47-46.36-65.87-50.13h-29.1z"/><path id="B" d="M53.85 92.87h454.67v19H53.85z"/><path id="C" d="M69.28 97.87l1.7 5.32h5.5l-4.45 3.3 1.7 5.32-4.45-3.29-4.45 3.29 1.7-5.32-4.45-3.3h5.5z"/><path id="D" d="M144.92 111.26l1.7 5.32h5.5l-4.45 3.29 1.7 5.33-4.45-3.29-4.45 3.29 1.7-5.33-4.45-3.29h5.5z"/><path id="E" d="M129.96 97.87l1.7 5.32h5.49l-4.44 3.3 1.69 5.32-4.44-3.29-4.45 3.29 1.7-5.32-4.45-3.3h5.5z"/></defs><clipPath id="F"><use xlink:href="#A"/></clipPath><g clip-path="url(#F)"><path d="M53.84 93.78h455.05v240.17H53.84z" fill="#fff"/><g fill="#cf2032"><use xlink:href="#B"/><path d="M53.85 130.03h454.67v19H53.85zm0 37.16h454.67v19H53.85zm0 37.17h454.67v19H53.85zm0 37.16h454.67v19H53.85zm0 37.16h454.67v19H53.85zm0 37.16h454.67v19H53.85z"/></g><path d="M53.83 92.87h181.59v130.49H53.83z" fill="#202e61"/><g fill="#fff"><use xlink:href="#C"/><path d="M84.25 111.26l1.7 5.32h5.49L87 119.87l1.7 5.33-4.45-3.29-4.45 3.29 1.7-5.33-4.45-3.29h5.5zm0 26.16l1.7 5.32h5.49L87 146.03l1.7 5.33-4.45-3.29-4.45 3.29 1.7-5.33-4.45-3.29h5.5zm0 26.16l1.7 5.32h5.49L87 172.19l1.7 5.33-4.45-3.29-4.45 3.29 1.7-5.33-4.45-3.29h5.5zm0 26.16l1.7 5.32h5.49l-4.44 3.3 1.7 5.32-4.45-3.29-4.45 3.29 1.7-5.32-4.45-3.3h5.5zm30.33-78.48l1.7 5.32h5.5l-4.45 3.29 1.7 5.33-4.45-3.29-4.44 3.29 1.69-5.33-4.44-3.29h5.49zm0 78.48l1.7 5.32h5.5l-4.45 3.3 1.7 5.32-4.45-3.29-4.44 3.29 1.69-5.32-4.44-3.3h5.49z"/><use xlink:href="#D"/><path d="M144.92 189.74l1.7 5.32h5.5l-4.45 3.3 1.7 5.32-4.45-3.29-4.45 3.29 1.7-5.32-4.45-3.3h5.5zm30.34-78.48l1.7 5.32h5.5l-4.45 3.29 1.7 5.33-4.45-3.29-4.45 3.29 1.7-5.33-4.45-3.29h5.5zm0 26.16l1.7 5.32h5.5l-4.45 3.29 1.7 5.33-4.45-3.29-4.45 3.29 1.7-5.33-4.45-3.29h5.5zm0 52.32l1.7 5.32h5.5l-4.45 3.3 1.7 5.32-4.45-3.29-4.45 3.29 1.7-5.32-4.45-3.3h5.5zm30.34-78.48l1.7 5.32h5.5l-4.45 3.29 1.7 5.33-4.45-3.29-4.45 3.29 1.7-5.33-4.45-3.29h5.5zm0 26.16l1.7 5.32h5.5l-4.45 3.29 1.7 5.33-4.45-3.29-4.45 3.29 1.7-5.33-4.45-3.29h5.5zm0 26.16l1.7 5.32h5.5l-4.45 3.29 1.7 5.33-4.45-3.29-4.45 3.29 1.7-5.33-4.45-3.29h5.5zm0 26.16l1.7 5.32h5.5l-4.45 3.3 1.7 5.32-4.45-3.29-4.45 3.29 1.7-5.32-4.45-3.3h5.5zM69.28 124.03l1.7 5.32h5.5l-4.45 3.3 1.7 5.32-4.45-3.29-4.45 3.29 1.7-5.32-4.45-3.3h5.5zm0 26.16l1.7 5.32h5.5l-4.45 3.3 1.7 5.32-4.45-3.29-4.45 3.29 1.7-5.32-4.45-3.3h5.5zm0 26.16l1.7 5.32h5.5l-4.45 3.3 1.7 5.32-4.45-3.29-4.45 3.29 1.7-5.32-4.45-3.3h5.5zm0 26.16l1.7 5.32h5.5l-4.45 3.3 1.7 5.32-4.45-3.29-4.45 3.29 1.7-5.32-4.45-3.3h5.5zM99.21 97.87l1.7 5.32h5.5l-4.45 3.3 1.7 5.32-4.45-3.29-4.45 3.29 1.7-5.32-4.45-3.3h5.5zm0 26.16l1.7 5.32h5.5l-4.45 3.3 1.7 5.32-4.45-3.29-4.45 3.29 1.7-5.32-4.45-3.3h5.5zm0 26.16l1.7 5.32h5.5l-4.45 3.3 1.7 5.32-4.45-3.29-4.45 3.29 1.7-5.32-4.45-3.3h5.5zm0 26.16l1.7 5.32h5.5l-4.45 3.3 1.7 5.32-4.45-3.29-4.45 3.29 1.7-5.32-4.45-3.3h5.5zm0 26.16l1.7 5.32h5.5l-4.45 3.3 1.7 5.32-4.45-3.29-4.45 3.29 1.7-5.32-4.45-3.3h5.5z"/><use xlink:href="#E"/><path d="M129.96 124.03l1.7 5.32h5.49l-4.44 3.3 1.69 5.32-4.44-3.29-4.45 3.29 1.7-5.32-4.45-3.3h5.5zm0 78.48l1.7 5.32h5.49l-4.44 3.3 1.69 5.32-4.44-3.29-4.45 3.29 1.7-5.32-4.45-3.3h5.5zm30.13-104.64l1.7 5.32h5.5l-4.45 3.3 1.7 5.32-4.45-3.29-4.45 3.29 1.7-5.32-4.45-3.3h5.5zm0 26.16l1.7 5.32h5.5l-4.45 3.3 1.7 5.32-4.45-3.29-4.45 3.29 1.7-5.32-4.45-3.3h5.5zm0 78.48l1.7 5.32h5.5l-4.45 3.3 1.7 5.32-4.45-3.29-4.45 3.29 1.7-5.32-4.45-3.3h5.5zm30.14-104.64l1.7 5.32h5.5l-4.45 3.3 1.7 5.32-4.45-3.29-4.45 3.29 1.7-5.32-4.45-3.3h5.5zm0 26.16l1.7 5.32h5.5l-4.45 3.3 1.7 5.32-4.45-3.29-4.45 3.29 1.7-5.32-4.45-3.3h5.5zm0 26.16l1.7 5.32h5.5l-4.45 3.3 1.7 5.32-4.45-3.29-4.45 3.29 1.7-5.32-4.45-3.3h5.5zm0 26.16l1.7 5.32h5.5l-4.45 3.3 1.7 5.32-4.45-3.29-4.45 3.29 1.7-5.32-4.45-3.3h5.5zm0 26.16l1.7 5.32h5.5l-4.45 3.3 1.7 5.32-4.45-3.29-4.45 3.29 1.7-5.32-4.45-3.3h5.5zm30.74-78.48l1.7 5.32h5.5l-4.45 3.3 1.7 5.32-4.45-3.29-4.45 3.29 1.7-5.32-4.45-3.3h5.5zm0 26.16l1.7 5.32h5.5l-4.45 3.3 1.7 5.32-4.45-3.29-4.45 3.29 1.7-5.32-4.45-3.3h5.5zm0 26.16l1.7 5.32h5.5l-4.45 3.3 1.7 5.32-4.45-3.29-4.45 3.29 1.7-5.32-4.45-3.3h5.5z"/></g></g><path d="M1 108.79l287.42-71.13 277.74 71.13L571 93.7 286 19.34 1 92.89z" fill="#031e4b"/><path d="M27.74 332.95h508.87v14.55H27.74z" fill="#051f4d"/><g fill="#b91f33"><path d="M454.43 29.58h23.53v23.71h-23.53zm27.27 0h23.53v23.71H481.7zm0-27.08h23.53v23.71H481.7z"/><path d="M454.43 2.5h23.53v23.71h-23.53z"/></g></svg>