<svg id="visual" viewBox="0 0 960 540" width="960" height="540" xmlns="http://www.w3.org/2000/svg" xmlns:xlink="http://www.w3.org/1999/xlink" version="1.1"><rect x="0" y="0" width="960" height="540" fill="#001220"></rect><path d="M0 482L26.7 477.8C53.3 473.7 106.7 465.3 160 453.3C213.3 441.3 266.7 425.7 320 428.5C373.3 431.3 426.7 452.7 480 447.8C533.3 443 586.7 412 640 398.3C693.3 384.7 746.7 388.3 800 404.2C853.3 420 906.7 448 933.3 462L960 476L960 541L933.3 541C906.7 541 853.3 541 800 541C746.7 541 693.3 541 640 541C586.7 541 533.3 541 480 541C426.7 541 373.3 541 320 541C266.7 541 213.3 541 160 541C106.7 541 53.3 541 26.7 541L0 541Z" fill="#fa7268"></path><path d="M0 450L26.7 447.5C53.3 445 106.7 440 160 438.3C213.3 436.7 266.7 438.3 320 442.8C373.3 447.3 426.7 454.7 480 464.8C533.3 475 586.7 488 640 490.7C693.3 493.3 746.7 485.7 800 478.2C853.3 470.7 906.7 463.3 933.3 459.7L960 456L960 541L933.3 541C906.7 541 853.3 541 800 541C746.7 541 693.3 541 640 541C586.7 541 533.3 541 480 541C426.7 541 373.3 541 320 541C266.7 541 213.3 541 160 541C106.7 541 53.3 541 26.7 541L0 541Z" fill="#c62368"></path></svg>