<?xml version="1.0" standalone="no"?>
<!DOCTYPE svg PUBLIC "-//W3C//DTD SVG 20010904//EN"
 "http://www.w3.org/TR/2001/REC-SVG-20010904/DTD/svg10.dtd">
<svg version="1.0" xmlns="http://www.w3.org/2000/svg"
 width="1144.000000pt" height="1144.000000pt" viewBox="0 0 1144.000000 1144.000000"
 preserveAspectRatio="xMidYMid meet">
<metadata>
Created by potrace 1.14, written by Peter Selinger 2001-2017
</metadata>
<g transform="translate(0.000000,1144.000000) scale(0.100000,-0.100000)"
fill="#000000" stroke="none">
<path d="M9090 8935 c0 -129 3 -236 8 -236 34 -5 455 -3 458 3 3 5 7 392 5
456 -1 9 -55 12 -236 12 l-235 0 0 -235z"/>
<path d="M9637 9163 c-2 -5 -3 -111 -3 -238 l1 -229 225 -1 c124 -1 230 0 235
2 6 2 10 89 10 236 l-1 232 -231 3 c-127 1 -233 -1 -236 -5z"/>
<path d="M5470 8769 c-124 -32 -234 -61 -245 -63 -37 -9 -505 -130 -745 -193
-74 -19 -142 -36 -150 -38 -8 -2 -35 -8 -60 -15 -25 -7 -52 -14 -60 -16 -8 -2
-51 -13 -95 -25 -107 -27 -198 -50 -210 -53 -5 -1 -16 -5 -22 -9 -7 -5 -13 -6
-13 -3 0 3 -23 -2 -52 -10 -28 -9 -60 -18 -70 -20 -10 -2 -28 -6 -40 -10 -13
-3 -33 -7 -45 -10 -12 -2 -35 -9 -50 -15 -16 -6 -30 -10 -33 -10 -8 0 -54 -10
-70 -16 -8 -3 -22 -7 -30 -8 -8 -1 -60 -15 -115 -29 -55 -15 -107 -29 -115
-31 -8 -2 -62 -15 -120 -30 -58 -15 -112 -28 -120 -30 -8 -2 -27 -8 -42 -14
-16 -6 -28 -8 -28 -6 0 2 -11 0 -25 -5 -14 -5 -36 -12 -49 -14 -12 -2 -85 -21
-162 -41 -132 -35 -150 -39 -191 -49 -10 -2 -54 -14 -98 -26 -78 -21 -145 -38
-175 -44 -8 -2 -22 -6 -30 -9 -14 -5 -286 -75 -320 -82 -8 -2 -51 -13 -95 -24
-44 -12 -91 -24 -105 -27 -14 -2 -41 -11 -61 -19 -20 -8 -39 -12 -42 -9 -3 3
-14 1 -24 -4 -10 -6 -31 -13 -48 -16 -16 -3 -109 -26 -205 -51 -96 -25 -182
-47 -190 -48 -8 -1 -19 -5 -25 -8 -5 -4 -28 -10 -50 -14 -22 -5 -44 -10 -50
-11 -5 -2 -22 -6 -37 -9 -15 -3 -39 -10 -53 -15 -14 -5 -25 -7 -25 -4 0 2 -8
0 -19 -5 -10 -6 -31 -13 -47 -16 -16 -3 -81 -19 -144 -35 -63 -17 -124 -33
-135 -35 -11 -3 -31 -7 -45 -11 -30 -6 -40 -9 -60 -17 -20 -7 -98 -26 -135
-33 -16 -3 -38 -10 -47 -15 -10 -5 -18 -8 -18 -6 0 3 -46 -8 -102 -23 l-103
-27 -3 -149 c-3 -165 -1 -179 25 -165 10 5 32 11 48 14 17 3 149 36 295 72
146 37 276 69 289 71 14 3 28 7 31 9 4 2 20 7 36 9 37 7 40 8 229 56 88 23
174 43 190 46 17 3 41 9 55 14 14 4 48 14 75 20 28 7 57 14 65 16 71 18 90 21
90 17 0 -3 6 0 13 6 8 6 29 13 48 15 19 3 34 5 34 6 0 1 9 3 20 5 11 2 72 18
135 34 63 16 126 32 140 35 14 3 40 9 58 15 17 5 32 7 32 4 0 -3 7 0 15 7 8 7
15 10 15 7 0 -3 26 2 58 10 31 8 66 17 77 20 38 8 50 11 50 13 0 1 11 3 24 6
13 2 60 14 105 25 45 12 89 23 98 25 10 2 26 6 35 8 10 2 47 12 83 21 36 10
78 19 93 21 16 2 33 6 38 9 5 4 17 8 26 10 10 2 47 11 83 20 36 8 72 17 80 19
8 2 35 9 60 16 25 7 56 14 70 16 14 3 48 11 75 19 28 7 64 16 80 19 17 2 46
10 65 16 19 5 46 12 60 15 14 3 50 12 80 20 47 14 82 22 125 29 6 1 15 4 20 7
6 4 28 10 50 14 22 5 45 10 50 11 6 2 24 6 40 9 17 3 39 9 50 12 24 8 21 8 70
18 22 5 42 10 45 10 3 1 24 7 48 14 24 7 55 14 70 17 15 2 133 31 262 64 129
33 244 61 255 64 11 2 49 12 85 21 36 9 72 18 80 20 8 2 35 8 60 15 25 7 56
14 70 17 14 2 43 9 65 15 22 6 47 13 55 14 8 2 69 17 135 34 66 17 129 32 140
35 24 4 285 69 375 92 76 20 77 20 110 27 14 3 67 16 119 29 86 21 98 22 145
10 97 -27 361 -94 386 -99 14 -3 39 -9 56 -15 17 -5 40 -12 50 -14 10 -2 91
-23 179 -45 88 -22 169 -43 179 -45 10 -2 33 -9 50 -14 17 -6 42 -12 56 -15
33 -6 337 -84 375 -96 17 -5 41 -11 55 -14 40 -8 60 -13 145 -36 44 -12 91
-23 103 -26 13 -3 49 -12 80 -20 80 -22 362 -94 391 -100 14 -3 28 -7 32 -10
4 -2 27 -8 51 -13 39 -9 113 -27 453 -115 55 -15 109 -28 120 -31 47 -11 250
-64 250 -65 0 -1 7 -3 16 -5 42 -8 587 -147 609 -155 14 -5 39 -11 57 -14 17
-2 36 -7 41 -10 4 -3 19 -7 33 -10 77 -18 117 -27 239 -59 74 -20 225 -59 335
-87 110 -28 209 -54 220 -57 11 -2 36 -8 55 -13 19 -4 71 -18 115 -30 44 -12
91 -24 105 -26 14 -3 48 -11 75 -19 86 -24 329 -86 350 -89 11 -2 27 -6 35 -8
50 -17 172 -48 191 -48 9 0 19 10 22 23 5 25 71 234 81 257 5 13 -11 20 -86
39 -51 12 -100 25 -108 29 -8 3 -22 7 -30 8 -8 1 -42 9 -75 19 -33 9 -69 18
-80 21 -11 3 -24 6 -30 8 -5 2 -23 6 -40 11 -16 4 -79 21 -140 37 -60 16 -117
31 -125 33 -8 2 -33 8 -55 14 -22 5 -60 15 -85 21 -25 6 -121 32 -215 57 -93
25 -179 47 -190 49 -11 1 -51 12 -90 23 -38 10 -133 36 -210 56 -170 44 -161
42 -210 55 -22 6 -50 13 -63 16 -12 2 -64 16 -115 30 -50 14 -100 27 -110 29
-10 2 -52 14 -95 25 -42 12 -86 23 -97 25 -17 3 -315 81 -445 116 -19 6 -48
12 -65 15 -16 3 -38 10 -47 15 -10 5 -18 7 -18 5 0 -3 -11 -1 -25 4 -14 5 -36
12 -48 14 -12 2 -58 14 -102 26 -44 12 -87 23 -95 25 -8 2 -58 16 -110 30 -52
15 -104 28 -115 29 -11 2 -27 6 -35 9 -14 5 -160 44 -199 52 -9 2 -83 22 -166
43 -342 90 -471 124 -494 128 -14 3 -28 7 -33 10 -5 3 -20 7 -33 10 -14 2 -94
23 -178 45 -83 23 -160 43 -169 45 -23 5 -54 13 -75 19 -37 9 -99 26 -113 29
-8 2 -42 11 -75 20 -33 9 -67 18 -75 20 -8 2 -96 25 -195 51 -99 26 -187 48
-195 50 -23 5 -198 52 -260 69 -30 9 -66 15 -80 15 -14 0 -126 -27 -250 -60z"/>
<path d="M9090 8391 l0 -237 235 0 c230 0 235 0 235 20 1 29 1 406 0 432 0 21
-2 22 -235 22 l-235 0 0 -237z"/>
<path d="M9644 8622 c-7 -5 -11 -89 -10 -237 l0 -230 232 -1 c204 -1 233 1
236 15 2 9 3 115 3 236 l-1 220 -225 2 c-124 1 -230 -1 -235 -5z"/>
<path d="M6342 7183 c-77 -12 -217 -46 -267 -64 -42 -15 -58 -22 -155 -67 -47
-21 -89 -39 -94 -39 -5 -1 -12 -5 -15 -10 -3 -4 -39 -30 -80 -57 -74 -49 -252
-218 -307 -291 -54 -72 -124 -184 -124 -199 0 -8 -4 -16 -9 -18 -8 -3 -79
-173 -86 -206 -2 -9 -11 -48 -20 -87 -24 -100 -29 -152 -28 -310 0 -122 2
-163 18 -270 21 -151 114 -369 200 -470 51 -61 160 -165 171 -165 7 0 14 -4
16 -9 5 -16 177 -120 268 -163 187 -88 422 -169 653 -224 9 -2 27 -7 40 -10
12 -3 41 -10 65 -15 97 -20 404 -100 423 -109 10 -6 19 -8 19 -4 0 3 11 -1 25
-10 13 -9 31 -16 40 -16 8 0 23 -4 33 -9 9 -5 44 -22 76 -38 84 -40 157 -115
188 -193 20 -51 25 -77 23 -144 -1 -47 -9 -97 -18 -119 -9 -20 -16 -40 -16
-43 1 -11 -56 -81 -99 -122 -68 -64 -180 -123 -262 -139 -157 -29 -335 -36
-467 -18 -136 18 -305 79 -390 141 -63 46 -157 148 -195 212 -20 33 -51 100
-69 149 -18 48 -34 90 -35 91 -1 2 -29 -2 -61 -9 -32 -7 -62 -14 -68 -14 -5
-1 -19 -4 -30 -8 -11 -3 -31 -8 -45 -11 -14 -2 -47 -10 -75 -16 -27 -6 -59
-14 -70 -16 -24 -5 -42 -9 -120 -28 -33 -8 -60 -14 -60 -14 0 0 -60 -14 -135
-31 -47 -11 -96 -22 -110 -25 -14 -2 -56 -12 -93 -21 -55 -14 -67 -21 -62 -34
4 -9 8 -20 9 -26 1 -5 5 -16 9 -22 5 -7 6 -13 2 -13 -3 0 -1 -8 4 -18 6 -11
12 -30 15 -44 2 -14 14 -46 25 -71 12 -25 21 -50 21 -56 0 -14 73 -155 83
-159 4 -2 7 -8 7 -13 0 -15 77 -127 134 -194 137 -162 282 -273 491 -375 96
-47 300 -120 370 -134 17 -3 64 -12 105 -20 235 -46 519 -53 830 -20 44 5 245
43 310 59 144 36 340 124 470 211 193 129 375 339 482 555 26 54 45 98 46 109
0 3 9 28 20 55 45 116 67 260 66 450 -1 198 -35 342 -125 520 -66 131 -123
209 -239 326 -163 165 -300 245 -577 339 -83 28 -160 53 -170 55 -10 2 -54 14
-98 26 -44 11 -84 22 -90 23 -5 1 -19 5 -30 9 -11 3 -31 8 -45 11 -14 2 -45 9
-70 16 -25 7 -52 14 -60 15 -8 2 -49 11 -90 20 -41 9 -84 18 -95 21 -141 29
-314 84 -398 126 -94 47 -173 139 -195 227 -4 14 -7 67 -7 116 0 76 4 99 26
145 29 62 64 100 128 141 47 30 141 64 206 74 22 4 51 8 65 10 33 6 267 6 305
1 92 -12 263 -71 309 -107 65 -50 129 -113 163 -160 44 -60 102 -168 109 -202
2 -11 6 -22 9 -26 5 -4 402 122 430 138 6 3 15 6 20 8 26 5 386 130 391 136 8
8 -52 160 -83 209 -13 21 -23 41 -23 45 0 5 -20 39 -45 76 -25 38 -45 71 -45
73 0 3 -5 10 -10 17 -6 7 -27 32 -48 57 -49 59 -171 177 -222 215 -22 17 -46
35 -53 40 -7 6 -28 19 -47 29 -19 11 -37 22 -40 26 -3 3 -43 24 -90 47 -95 46
-226 94 -310 112 -30 7 -62 15 -70 18 -8 3 -24 8 -35 9 -11 2 -51 9 -90 16
-98 16 -658 17 -753 1z"/>
<path d="M1154 7125 c-2 -5 -3 -980 -2 -2165 l3 -2155 35 -5 c19 -3 67 -3 107
0 40 3 82 2 95 -1 13 -3 40 -2 61 2 20 3 39 3 42 -1 2 -4 25 -4 50 0 25 4 45
4 45 1 0 -3 20 -6 45 -6 25 0 45 4 45 8 0 5 4 6 9 3 4 -3 33 -6 62 -6 68 0
128 -2 154 -4 11 -1 37 1 58 5 20 3 37 3 37 -1 0 -4 18 -4 40 0 22 4 40 4 40
0 0 -4 18 -4 40 0 22 4 40 4 40 0 0 -4 18 -4 40 0 22 4 57 4 78 1 20 -4 54 -4
75 -1 20 4 37 4 37 0 0 -3 23 -4 50 0 28 4 50 4 50 1 0 -4 32 -4 70 -1 39 3
70 3 70 -1 0 -3 23 -3 50 1 28 4 50 4 50 1 0 -5 82 -6 205 -2 17 1 39 1 50 1
11 0 43 -1 70 -1 28 0 55 -1 60 -1 28 0 314 13 340 16 17 2 57 7 90 11 102 12
245 45 355 82 104 35 277 119 306 148 9 8 19 15 24 15 9 0 173 160 205 200 20
24 71 98 105 150 53 83 112 246 135 380 13 74 14 304 1 365 -19 92 -31 134
-47 173 -10 23 -16 42 -14 42 9 0 -71 147 -118 217 -43 64 -139 171 -194 214
-54 43 -145 100 -213 131 -70 33 -218 86 -254 92 -29 4 -27 13 6 26 95 35 207
85 240 106 21 13 40 24 43 24 8 0 78 52 87 65 4 5 8 6 8 2 0 -14 119 104 166
164 36 47 127 204 122 212 -1 1 6 25 15 52 63 193 60 482 -7 687 -50 151 -128
272 -261 403 -93 92 -107 104 -189 157 -184 119 -390 175 -716 194 -178 11
-2192 10 -2196 -1z m2002 -778 c12 -3 37 -8 56 -11 124 -20 257 -144 300 -281
21 -65 27 -159 16 -235 -14 -91 -78 -222 -136 -278 -42 -40 -138 -87 -196 -96
-21 -4 -42 -8 -46 -11 -20 -12 -184 -18 -560 -19 -228 -1 -420 0 -427 2 -8 3
-11 121 -11 465 0 254 2 465 4 468 5 8 968 4 1000 -4z m-523 -1707 c166 1 307
2 312 2 39 3 228 -16 275 -27 19 -5 37 -9 40 -10 81 -17 190 -81 247 -145 124
-138 160 -345 92 -529 -26 -71 -81 -148 -134 -189 -49 -37 -131 -79 -169 -86
-14 -3 -31 -8 -36 -11 -6 -4 -21 -8 -33 -10 -12 -1 -44 -6 -72 -10 -27 -4 -63
-9 -80 -11 -24 -3 -776 -6 -900 -4 l-30 0 2 443 c1 243 2 475 2 515 l1 72 75
-1 c42 -1 79 1 82 4 3 4 10 4 14 1 5 -3 145 -5 312 -4z"/>
<path d="M9101 7120 c-5 -11 -8 -4227 -2 -4301 1 -15 46 -16 499 -16 l497 0 0
2164 c0 1436 -3 2163 -10 2164 -5 1 -228 2 -493 3 -423 1 -485 -1 -491 -14z"/>
<path d="M559 2560 c-1 -3 -3 -69 -4 -147 l-2 -143 5091 0 5091 0 -1 141 c-1
77 -4 143 -7 146 -7 7 -187 6 -194 -1 -3 -3 -16 -1 -29 4 -13 5 -24 6 -24 1 0
-5 -15 -6 -32 -2 -18 3 -44 5 -58 4 -32 -3 -69 -4 -214 -3 -65 1 -121 -1 -123
-4 -3 -3 -16 -1 -29 4 -13 5 -24 6 -24 1 0 -5 -15 -6 -32 -2 -18 3 -44 5 -58
4 -28 -3 -64 -3 -168 -3 -40 0 -77 -2 -82 -5 -5 -3 -11 -1 -14 4 -3 4 -23 5
-44 1 -21 -4 -48 -3 -60 1 -12 5 -22 4 -22 0 0 -5 -15 -6 -32 -2 -18 3 -44 5
-58 4 -32 -3 -77 -4 -167 -3 -40 1 -77 -1 -83 -5 -5 -3 -10 -2 -10 3 0 5 -20
6 -44 2 -24 -3 -53 -3 -65 1 -11 5 -21 5 -21 0 0 -5 -15 -5 -32 -2 -18 4 -52
4 -75 1 -24 -4 -43 -4 -43 -1 0 6 -113 4 -142 -3 -10 -2 -18 -1 -18 2 0 7
-112 5 -142 -2 -10 -2 -18 -1 -18 2 0 7 -112 5 -142 -2 -10 -2 -18 -1 -18 2 0
7 -112 5 -142 -2 -10 -2 -18 -1 -18 2 0 7 -112 5 -142 -2 -10 -2 -18 -1 -18 2
0 7 -112 5 -142 -2 -10 -2 -18 -1 -18 2 0 7 -112 5 -142 -2 -10 -2 -18 -1 -18
2 0 4 -33 6 -72 4 -40 -2 -86 -3 -103 -3 -191 2 -258 1 -262 -3 -3 -3 -16 -1
-29 4 -13 5 -24 6 -24 1 0 -5 -15 -6 -32 -2 -18 3 -44 5 -58 4 -32 -3 -69 -4
-214 -3 -65 1 -121 -1 -123 -4 -3 -3 -16 -1 -29 4 -13 5 -24 6 -24 1 0 -5 -15
-6 -32 -2 -18 3 -46 5 -63 4 -39 -4 -76 -4 -218 -1 -64 2 -117 1 -117 -2 0 -3
-24 -4 -52 -2 -84 4 -260 3 -265 -2 -3 -3 -16 -1 -29 4 -13 5 -24 6 -24 1 0
-5 -15 -6 -32 -2 -18 3 -44 5 -58 4 -32 -3 -69 -4 -214 -3 -65 1 -121 -1 -123
-4 -3 -3 -16 -1 -29 4 -13 5 -24 6 -24 1 0 -5 -15 -6 -32 -2 -18 3 -44 5 -58
4 -32 -3 -63 -4 -228 -3 -73 0 -137 -2 -143 -5 -5 -4 -9 -3 -9 2 0 8 -108 7
-142 -1 -10 -2 -18 -1 -18 2 0 7 -112 5 -142 -2 -10 -2 -18 -1 -18 2 0 7 -112
5 -142 -2 -10 -2 -18 -1 -18 2 0 7 -112 5 -142 -2 -10 -2 -18 -1 -18 2 0 7
-112 5 -142 -2 -10 -2 -18 -1 -18 2 0 7 -112 5 -142 -2 -10 -2 -18 -1 -18 2 0
7 -112 5 -142 -2 -10 -2 -18 -1 -18 2 0 4 -21 6 -47 4 -27 -2 -55 -3 -63 -3
-8 0 -67 1 -130 0 -63 0 -122 0 -130 0 -75 3 -224 1 -227 -3 -3 -3 -16 -1 -29
4 -13 5 -24 6 -24 1 0 -5 -15 -6 -32 -2 -18 3 -44 5 -58 4 -32 -3 -69 -4 -214
-3 -65 1 -121 -1 -123 -4 -3 -3 -16 -1 -29 4 -13 5 -24 6 -24 1 0 -5 -15 -6
-32 -2 -18 3 -44 5 -58 4 -28 -3 -64 -3 -168 -3 -40 0 -77 -2 -82 -5 -5 -3
-11 -1 -14 4 -3 4 -23 5 -44 1 -21 -4 -48 -3 -60 1 -12 5 -22 4 -22 0 0 -5
-15 -6 -32 -2 -18 3 -44 5 -58 4 -32 -3 -69 -4 -214 -3 -65 1 -121 -1 -123 -4
-3 -3 -16 -1 -29 4 -13 5 -24 6 -24 1 0 -5 -15 -6 -32 -2 -18 3 -44 5 -58 4
-32 -3 -69 -4 -214 -3 -65 1 -121 -1 -123 -4 -3 -3 -16 -1 -29 4 -13 5 -24 6
-24 1 0 -5 -15 -5 -32 -2 -18 4 -52 4 -75 1 -24 -4 -43 -4 -43 -1 0 6 -113 4
-142 -3 -10 -2 -18 -1 -18 2 0 7 -112 5 -142 -2 -10 -2 -18 -1 -18 2 0 7 -112
5 -142 -2 -10 -2 -18 -1 -18 2 0 8 -169 10 -171 2z"/>
</g>
</svg>
